HIERARCHY
ROOT Hips
{
  OFFSET -331.093 83.8371 -317.828
  CHANNELS 6 Xposition Yposition Zposition Zrotation Xrotation Yrotation
  JOINT LeftUpLeg
  {
    OFFSET 8.64259 1.95398 -2.38835
    CHANNELS 3 Zrotation Xrotation Yrotation
    JOINT LeftLeg
    {
      OFFSET 43.7702 0 0
      CHANNELS 3 Zrotation Xrotation Yrotation
      JOINT LeftFoot
      {
        OFFSET 40.6238 0 0
        CHANNELS 3 Zrotation Xrotation Yrotation
        JOINT LeftToeBase
        {
          OFFSET 12.7242 0 0
          CHANNELS 3 Zrotation Xrotation Yrotation
          End Site
          {
            OFFSET 0 0 0
          }
        }
      }
    }
  }
  JOINT RightUpLeg
  {
    OFFSET -8.2249 1.95398 -2.59336
    CHANNELS 3 Zrotation Xrotation Yrotation
    JOINT RightLeg
    {
      OFFSET 43.5653 0 0
      CHANNELS 3 Zrotation Xrotation Yrotation
      JOINT RightFoot
      {
        OFFSET 40.6238 0 0
        CHANNELS 3 Zrotation Xrotation Yrotation
        JOINT RightToeBase
        {
          OFFSET 12.7242 0 0
          CHANNELS 3 Zrotation Xrotation Yrotation
          End Site
          {
            OFFSET 0 0 0
          }
        }
      }
    }
  }
  JOINT Spine
  {
    OFFSET 0.165834 0.87714 6.61349
    CHANNELS 3 Zrotation Xrotation Yrotation
    JOINT Spine1
    {
      OFFSET 7.38963 1.71661e-005 0
      CHANNELS 3 Zrotation Xrotation Yrotation
      JOINT Spine2
      {
        OFFSET 11.9445 1.14441e-005 0
        CHANNELS 3 Zrotation Xrotation Yrotation
        JOINT Spine3
        {
          OFFSET 14.7254 4.19617e-005 0
          CHANNELS 3 Zrotation Xrotation Yrotation
          JOINT Spine4
          {
            OFFSET 10.9679 0 0
            CHANNELS 3 Zrotation Xrotation Yrotation
            JOINT RightShoulder
            {
              OFFSET 2.46616 -1.6653 3.69651
              CHANNELS 3 Zrotation Xrotation Yrotation
              JOINT RightArm
              {
                OFFSET 13.0012 0 0
                CHANNELS 3 Zrotation Xrotation Yrotation
                JOINT RightForeArm
                {
                  OFFSET 28.7848 1.62311e-005 0
                  CHANNELS 3 Zrotation Xrotation Yrotation
                  JOINT RightHand
                  {
                    OFFSET 26.5688 1.62095e-005 0
                    CHANNELS 3 Zrotation Xrotation Yrotation
                    End Site
                    {
                      OFFSET 0 0 0
                    }
                  }
                }
              }
            }
            JOINT LeftShoulder
            {
              OFFSET 2.38034 -1.29275 -3.7523
              CHANNELS 3 Zrotation Xrotation Yrotation
              JOINT LeftArm
              {
                OFFSET 16.3182 6.07031e-005 0
                CHANNELS 3 Zrotation Xrotation Yrotation
                JOINT LeftForeArm
                {
                  OFFSET 27.0901 0 0
                  CHANNELS 3 Zrotation Xrotation Yrotation
                  JOINT LeftHand
                  {
                    OFFSET 24.5451 1.51738e-005 0
                    CHANNELS 3 Zrotation Xrotation Yrotation
                    End Site
                    {
                      OFFSET 0 0 0
                    }
                  }
                }
              }
            }
            JOINT Neck
            {
              OFFSET 5.0226 -0.0266342 0
              CHANNELS 3 Zrotation Xrotation Yrotation
              JOINT Head
              {
                OFFSET 6.69364 2.86102e-005 0
                CHANNELS 3 Zrotation Xrotation Yrotation
                End Site
                {
                  OFFSET 0 0 0
                }
              }
            }
          }
        }
      }
    }
  }
}
MOTION
Frames:	7
Frame Time:	0.0416667
-60.7314 20.714 -74.7539 -9.45408 -24.5289 39.6163 -168.636 -1.06187 91.6102 -14.5033 -2.88978 -2.53446 46.0817 -5.62912 -1.12937 26.5244 13.3953 50.0152 124.984 74.5497 101.546 -113.149 -2.18617 -2.03288 57.2381 1.36854 0.320056 46.5727 -7.12705 -23.9234 1.64052 7.38559 -91.5803 12.1324 2.51396 -3.43112 0.45902 2.36062 -3.53829 -22.0737 3.4286 -2.51739 -2.06106 3.4286 -2.5174 95.8536 -15.9137 -98.5734 3.64559 19.2056 -24.6835 -19.3562 8.0457 -131.516 -55.554 -5.01224 5.00729 -78.8331 -17.1907 94.5486 -44.2172 -44.051 -66.1261 38.1306 -6.39527 -119.851 22.2665 5.81774 22.2179 -7.62905 0.781542 13.9959 45.8063 -1.37665 -1.54557 
-58.9095 21.7108 -70.2568 -4.97037 -22.3538 41.8284 -168.009 -3.10578 94.0959 -7.53011 -1.00957 -1.54417 33.8553 -12.5728 -6.28828 18.1148 -3.75687 40.4975 149.406 61.56 76.3943 -99.2836 -13.7829 1.01272 60.7174 0.808227 0.0532602 57.8456 -9.91139 -23.7466 1.55473 7.25644 -90.9171 12.3833 2.65408 -2.13104 0.713152 2.55774 -2.2458 -21.8378 3.1717 -1.23449 -1.82515 3.1717 -1.23449 98.7263 -5.23955 -94.8894 27.7222 47.2874 -48.0005 -9.7077 -6.64392 -121.461 -44.1992 -1.98716 0.177591 -79.9463 -18.2947 92.0281 -33.8001 -27.9983 -64.7383 45.966 -14.3992 -115.841 20.5916 5.39891 22.152 -5.22333 -0.344752 10.0973 43.1099 -2.71023 -2.81423 
-56.3108 21.5218 -63.4077 0.681701 -18.83 47.6725 -163.285 -0.648678 101.877 -10.5062 4.8313 -1.71094 36.7027 -11.4885 -5.51264 20.8997 -3.95097 14.6545 154.403 41.7172 72.759 -74.1914 -2.64246 4.87288 74.4827 -5.10702 -2.64274 61.9572 -8.55662 -18.271 1.3638 7.21591 -90.4953 12.4556 2.4741 -1.27489 0.786193 2.4156 -1.38258 -21.7668 2.74281 -0.471904 -1.75412 2.74281 -0.471895 100.327 1.60845 -88.2126 53.5989 53.0629 -76.1768 -5.51176 -14.728 -97.1573 -33.0347 -0.747151 -2.70691 -82.7143 -22.9094 86.5253 -20.1028 -16.638 -63.8034 50.6888 -21.067 -112.167 16.2581 3.90953 19.6743 -2.8183 -1.95711 4.67772 40.7565 -3.86461 -3.43775 
-53.8314 20.9911 -56.1991 6.46391 -13.6743 53.0167 -159.67 10.7103 110.34 -28.4265 3.87076 -3.63571 47.7714 -6.71701 -1.84471 34.985 6.64642 6.36719 158.242 23.6045 72.9112 -45.9904 10.8965 5.45562 76.7333 -5.52743 -2.65821 61.8531 -9.54316 -20.5387 0.831723 7.2039 -89.8941 12.4684 1.70304 0.0179638 0.798597 1.70215 -0.0570785 -21.7448 1.61886 0.529081 -1.73214 1.61887 0.529073 101.362 9.53828 -88.9903 52.2747 49.3136 -80.9966 -4.46815 5.38246 -75.6587 -25.606 0.190468 -6.0154 -86.4349 -26.6276 79.6087 -7.05371 -8.79549 -58.3323 53.1858 -27.3591 -110.307 19.0978 4.74541 20.6672 -0.883048 -3.57121 -0.749159 38.5526 -5.38076 -5.61815 
-52.261 21.3609 -48.1497 10.4424 -3.41082 57.2562 -160.487 31.6405 116.844 -56.3148 15.1235 -3.81519 56.5031 -1.83955 3.62079 49.0125 17.5966 3.80077 162.878 12.1162 78.4492 -31.6203 5.41387 1.90282 65.7474 -2.29204 -1.3947 57.3735 -8.96351 -21.6585 0.309113 7.04681 -89.2504 12.7725 0.972636 1.38265 1.10128 1.03255 1.3385 -21.429 0.512181 1.61097 -1.41638 0.512197 1.61098 101.651 5.54494 -85.671 62.2346 50.5842 -80.1892 -3.61228 -2.69514 -79.02 -27.6534 0.0146844 -5.26633 -91.8299 -32.2934 71.176 -2.07856 -9.81311 -54.7024 51.9969 -30.2136 -112.398 23.2186 6.18087 22.7508 -0.322224 -6.93517 -9.41326 38.1237 -7.00775 -4.98051 
-50.3432 20.6022 -39.801 15.8428 8.61873 59.0361 -165.056 54.8674 121.123 -87.1018 22.8358 -0.440356 61.6235 2.65508 7.92374 52.046 24.9607 11.5196 167.535 4.42559 83.5576 -24.3608 -0.249307 -1.21503 56.6013 -0.820705 -0.491923 46.8111 -3.62303 -7.51362 -0.829833 7.13042 -88.6247 12.6177 -0.992298 2.86426 0.943878 -0.865337 2.9051 -21.5752 -1.80701 2.43404 -1.5625 -1.80702 2.43403 100.954 -6.64835 -85.0583 78.3001 56.1861 -83.9602 -12.7718 -12.5411 -100.807 -22.9602 -1.01726 -0.241519 -93.4515 -33.9051 68.8858 8.67783 -5.69502 -51.2858 49.9619 -34.6264 -113.887 20.7792 5.61878 22.9969 -1.56219 -9.3713 -14.2199 37.1534 -9.41394 -6.87928 
-49.1317 18.4492 -32.3932 17.5407 14.5601 58.8231 -161.178 77.7051 121.057 -109.901 32.0637 2.13055 63.0946 5.26345 11.1437 55.5019 34.5403 19.7785 171.607 3.32543 85.9739 -22.7902 -5.03046 -3.3538 50.841 0.347685 0.487371 18.6694 1.11632 14.2812 -1.33647 6.92712 -87.9937 13.037 -1.68953 4.20832 1.36011 -1.50282 4.27844 -21.1435 -2.87553 3.5073 -1.13083 -2.87552 3.50731 99.7739 -14.3754 -88.7323 88.69 62.0459 -86.2052 -10.297 -13.1755 -113.585 -19.777 -0.87326 -0.41876 -94.5473 -34.9639 67.3865 17.2455 -1.36105 -45.0342 49.2806 -39.1359 -115.288 21.0144 5.72946 23.2434 -4.41702 -10.048 -19.1121 38.4035 -9.8025 -6.58436 
